<mxfile host="app.diagrams.net" modified="2024-01-15T14:56:24.674Z" agent="Mozilla/5.0 (Windows NT 10.0; Win64; x64) AppleWebKit/537.36 (KHTML, like Gecko) Chrome/118.0.0.0 YaBrowser/23.11.0.0 Safari/537.36" etag="lcWdruDrGPNsrz0dfo6O" version="22.1.18" type="device">
  <diagram name="Page-1" id="42789a77-a242-8287-6e28-9cd8cfd52e62">
    <mxGraphModel dx="1113" dy="650" grid="1" gridSize="13" guides="1" tooltips="1" connect="1" arrows="1" fold="1" page="1" pageScale="1" pageWidth="1100" pageHeight="850" background="none" math="0" shadow="0">
      <root>
        <mxCell id="0" />
        <mxCell id="1" parent="0" />
        <mxCell id="88BNT0AhO2Y3sISrhNB4-1" value="&lt;font style=&quot;font-size: 19px;&quot;&gt;Москва&lt;/font&gt;" style="ellipse;whiteSpace=wrap;html=1;" vertex="1" parent="1">
          <mxGeometry x="450" y="270" width="120" height="80" as="geometry" />
        </mxCell>
        <mxCell id="88BNT0AhO2Y3sISrhNB4-2" value="&lt;font style=&quot;&quot;&gt;&lt;font style=&quot;font-size: 19px;&quot;&gt;Санкт-Петербург&lt;/font&gt;&lt;br&gt;&lt;/font&gt;" style="ellipse;whiteSpace=wrap;html=1;" vertex="1" parent="1">
          <mxGeometry x="377" y="26" width="120" height="80" as="geometry" />
        </mxCell>
        <mxCell id="88BNT0AhO2Y3sISrhNB4-3" value="&lt;font style=&quot;font-size: 19px;&quot;&gt;Минск&lt;/font&gt;" style="ellipse;whiteSpace=wrap;html=1;" vertex="1" parent="1">
          <mxGeometry x="221" y="190" width="120" height="80" as="geometry" />
        </mxCell>
        <mxCell id="88BNT0AhO2Y3sISrhNB4-4" value="&lt;font style=&quot;font-size: 19px;&quot;&gt;Калининград&lt;/font&gt;" style="ellipse;whiteSpace=wrap;html=1;" vertex="1" parent="1">
          <mxGeometry x="26" y="78" width="120" height="80" as="geometry" />
        </mxCell>
        <mxCell id="88BNT0AhO2Y3sISrhNB4-5" value="&lt;font style=&quot;font-size: 19px;&quot;&gt;Казань&lt;/font&gt;" style="ellipse;whiteSpace=wrap;html=1;" vertex="1" parent="1">
          <mxGeometry x="858" y="299" width="120" height="80" as="geometry" />
        </mxCell>
        <mxCell id="88BNT0AhO2Y3sISrhNB4-6" value="&lt;font style=&quot;font-size: 19px;&quot;&gt;Нижний &lt;br&gt;Новгород&lt;/font&gt;" style="ellipse;whiteSpace=wrap;html=1;" vertex="1" parent="1">
          <mxGeometry x="689" y="130" width="120" height="80" as="geometry" />
        </mxCell>
        <mxCell id="88BNT0AhO2Y3sISrhNB4-7" value="&lt;font style=&quot;font-size: 18px;&quot;&gt;Ростов-на-Дону&lt;/font&gt;" style="ellipse;whiteSpace=wrap;html=1;" vertex="1" parent="1">
          <mxGeometry x="390" y="507" width="120" height="80" as="geometry" />
        </mxCell>
        <mxCell id="88BNT0AhO2Y3sISrhNB4-9" value="" style="endArrow=classic;startArrow=classic;html=1;rounded=0;" edge="1" parent="1" source="88BNT0AhO2Y3sISrhNB4-4" target="88BNT0AhO2Y3sISrhNB4-3">
          <mxGeometry width="50" height="50" relative="1" as="geometry">
            <mxPoint x="494" y="375" as="sourcePoint" />
            <mxPoint x="544" y="325" as="targetPoint" />
          </mxGeometry>
        </mxCell>
        <mxCell id="88BNT0AhO2Y3sISrhNB4-25" value="&lt;font style=&quot;font-size: 19px;&quot;&gt;531 км&lt;/font&gt;" style="edgeLabel;html=1;align=center;verticalAlign=middle;resizable=0;points=[];" vertex="1" connectable="0" parent="88BNT0AhO2Y3sISrhNB4-9">
          <mxGeometry x="-0.1462" y="3" relative="1" as="geometry">
            <mxPoint as="offset" />
          </mxGeometry>
        </mxCell>
        <mxCell id="88BNT0AhO2Y3sISrhNB4-10" value="" style="endArrow=classic;startArrow=classic;html=1;rounded=0;" edge="1" parent="1" source="88BNT0AhO2Y3sISrhNB4-2" target="88BNT0AhO2Y3sISrhNB4-4">
          <mxGeometry width="50" height="50" relative="1" as="geometry">
            <mxPoint x="494" y="375" as="sourcePoint" />
            <mxPoint x="544" y="325" as="targetPoint" />
          </mxGeometry>
        </mxCell>
        <mxCell id="88BNT0AhO2Y3sISrhNB4-24" value="&lt;font style=&quot;font-size: 20px;&quot;&gt;1184&amp;nbsp;км&lt;/font&gt;" style="edgeLabel;html=1;align=center;verticalAlign=middle;resizable=0;points=[];" vertex="1" connectable="0" parent="88BNT0AhO2Y3sISrhNB4-10">
          <mxGeometry x="-0.0521" y="-1" relative="1" as="geometry">
            <mxPoint as="offset" />
          </mxGeometry>
        </mxCell>
        <mxCell id="88BNT0AhO2Y3sISrhNB4-11" value="" style="endArrow=classic;startArrow=classic;html=1;rounded=0;exitX=0.928;exitY=0.869;exitDx=0;exitDy=0;exitPerimeter=0;" edge="1" parent="1" source="88BNT0AhO2Y3sISrhNB4-3">
          <mxGeometry width="50" height="50" relative="1" as="geometry">
            <mxPoint x="494" y="375" as="sourcePoint" />
            <mxPoint x="455" y="299" as="targetPoint" />
          </mxGeometry>
        </mxCell>
        <mxCell id="88BNT0AhO2Y3sISrhNB4-26" value="&lt;font style=&quot;font-size: 19px;&quot;&gt;718 км&lt;/font&gt;" style="edgeLabel;html=1;align=center;verticalAlign=middle;resizable=0;points=[];" vertex="1" connectable="0" parent="88BNT0AhO2Y3sISrhNB4-11">
          <mxGeometry x="-0.0647" y="3" relative="1" as="geometry">
            <mxPoint as="offset" />
          </mxGeometry>
        </mxCell>
        <mxCell id="88BNT0AhO2Y3sISrhNB4-12" value="" style="endArrow=classic;startArrow=classic;html=1;rounded=0;" edge="1" parent="1" source="88BNT0AhO2Y3sISrhNB4-1" target="88BNT0AhO2Y3sISrhNB4-2">
          <mxGeometry width="50" height="50" relative="1" as="geometry">
            <mxPoint x="494" y="375" as="sourcePoint" />
            <mxPoint x="544" y="325" as="targetPoint" />
          </mxGeometry>
        </mxCell>
        <mxCell id="88BNT0AhO2Y3sISrhNB4-28" value="&lt;font style=&quot;font-size: 19px;&quot;&gt;709 км&lt;/font&gt;" style="edgeLabel;html=1;align=center;verticalAlign=middle;resizable=0;points=[];" vertex="1" connectable="0" parent="88BNT0AhO2Y3sISrhNB4-12">
          <mxGeometry x="0.0595" y="2" relative="1" as="geometry">
            <mxPoint x="-1" as="offset" />
          </mxGeometry>
        </mxCell>
        <mxCell id="88BNT0AhO2Y3sISrhNB4-13" value="" style="endArrow=classic;startArrow=classic;html=1;rounded=0;entryX=0.5;entryY=1;entryDx=0;entryDy=0;" edge="1" parent="1" source="88BNT0AhO2Y3sISrhNB4-7" target="88BNT0AhO2Y3sISrhNB4-1">
          <mxGeometry width="50" height="50" relative="1" as="geometry">
            <mxPoint x="494" y="375" as="sourcePoint" />
            <mxPoint x="544" y="325" as="targetPoint" />
          </mxGeometry>
        </mxCell>
        <mxCell id="88BNT0AhO2Y3sISrhNB4-27" value="&lt;font style=&quot;font-size: 19px;&quot;&gt;1074 км&lt;/font&gt;" style="edgeLabel;html=1;align=center;verticalAlign=middle;resizable=0;points=[];" vertex="1" connectable="0" parent="88BNT0AhO2Y3sISrhNB4-13">
          <mxGeometry x="0.0803" y="-4" relative="1" as="geometry">
            <mxPoint as="offset" />
          </mxGeometry>
        </mxCell>
        <mxCell id="88BNT0AhO2Y3sISrhNB4-14" value="" style="endArrow=classic;startArrow=classic;html=1;rounded=0;entryX=0;entryY=0.5;entryDx=0;entryDy=0;" edge="1" parent="1" source="88BNT0AhO2Y3sISrhNB4-1" target="88BNT0AhO2Y3sISrhNB4-5">
          <mxGeometry width="50" height="50" relative="1" as="geometry">
            <mxPoint x="572" y="325" as="sourcePoint" />
            <mxPoint x="544" y="299" as="targetPoint" />
          </mxGeometry>
        </mxCell>
        <mxCell id="88BNT0AhO2Y3sISrhNB4-21" value="&lt;font style=&quot;font-size: 19px;&quot;&gt;815 км&lt;/font&gt;" style="edgeLabel;html=1;align=center;verticalAlign=middle;resizable=0;points=[];" vertex="1" connectable="0" parent="88BNT0AhO2Y3sISrhNB4-14">
          <mxGeometry x="-0.0592" relative="1" as="geometry">
            <mxPoint x="-1" as="offset" />
          </mxGeometry>
        </mxCell>
        <mxCell id="88BNT0AhO2Y3sISrhNB4-15" value="" style="endArrow=classic;startArrow=classic;html=1;rounded=0;" edge="1" parent="1" source="88BNT0AhO2Y3sISrhNB4-1" target="88BNT0AhO2Y3sISrhNB4-6">
          <mxGeometry width="50" height="50" relative="1" as="geometry">
            <mxPoint x="494" y="349" as="sourcePoint" />
            <mxPoint x="544" y="299" as="targetPoint" />
          </mxGeometry>
        </mxCell>
        <mxCell id="88BNT0AhO2Y3sISrhNB4-23" value="&lt;font style=&quot;font-size: 19px;&quot;&gt;422 км&lt;/font&gt;" style="edgeLabel;html=1;align=center;verticalAlign=middle;resizable=0;points=[];" vertex="1" connectable="0" parent="88BNT0AhO2Y3sISrhNB4-15">
          <mxGeometry x="0.1324" y="-3" relative="1" as="geometry">
            <mxPoint as="offset" />
          </mxGeometry>
        </mxCell>
        <mxCell id="88BNT0AhO2Y3sISrhNB4-16" value="" style="endArrow=classic;startArrow=classic;html=1;rounded=0;entryX=0.769;entryY=0.975;entryDx=0;entryDy=0;entryPerimeter=0;exitX=0.064;exitY=0.163;exitDx=0;exitDy=0;exitPerimeter=0;" edge="1" parent="1" source="88BNT0AhO2Y3sISrhNB4-5" target="88BNT0AhO2Y3sISrhNB4-6">
          <mxGeometry width="50" height="50" relative="1" as="geometry">
            <mxPoint x="494" y="349" as="sourcePoint" />
            <mxPoint x="544" y="299" as="targetPoint" />
          </mxGeometry>
        </mxCell>
        <mxCell id="88BNT0AhO2Y3sISrhNB4-22" value="&lt;font style=&quot;font-size: 19px;&quot;&gt;395 км&lt;br&gt;&lt;/font&gt;" style="edgeLabel;html=1;align=center;verticalAlign=middle;resizable=0;points=[];" vertex="1" connectable="0" parent="88BNT0AhO2Y3sISrhNB4-16">
          <mxGeometry x="0.1884" y="-2" relative="1" as="geometry">
            <mxPoint x="1" as="offset" />
          </mxGeometry>
        </mxCell>
      </root>
    </mxGraphModel>
  </diagram>
</mxfile>
